<svg xmlns="http://www.w3.org/2000/svg" xmlns:x="http://www.w3.org/1999/xlink" width="962px" height="960px" viewBox="-132550 -131974 262000 261449">
  <style>
    polyline { fill: none; stroke: red; stroke-width: 128; stroke-linejoin: round; stroke-linecap: round; }
  </style>
  <image x:href="map.png" x="-132550" y="-131974" width="262000" height="261449" preserveAspectRatio="none" transform="translate(0 255)"/>
  <polyline points="89327,-23739 88571,-23969 87781,-24183 87329,-24917 87296,-25545 86692,-25927 85604,-26582 80049,-25355 74075,-24120 67657,-22906 67418,-24226"/>
  <polyline points="33522,-35909 33460,-35927 33456,-35918 32865,-36533 33076,-37465 32199,-37436 32297,-38368 32496,-38842 32077,-39600 31114,-39877 30817,-40785 30047,-40792 28937,-40709 26596,-41549 23102,-42321 22722,-43318 22098,-43464 22092,-43482 21859,-43351"/>
  <polyline points="19532,-25819 19391,-26448 19309,-27802 19154,-28260 17740,-29026 16674,-29947 16363,-30540 15893,-30902 14557,-31650 14074,-31682 12862,-32722 12938,-33969 12888,-35499 13140,-36929 12268,-37959 12796,-39019 13616,-39592 14564,-40256 14689,-40255 14519,-43427 15529,-43786"/>
  <polyline points="65825,-14827 64579,-22122"/>
  <polyline points="46986,-17936 49117,-18248 51015,-18498 52581,-18762"/>
  <polyline points="100953,-26497 100984,-27359 100141,-30316"/>
  <polyline points="93212,-28739 94039,-24514 94478,-24130 93718,-23375 94033,-22746"/>
  <polyline points="29419,12961 29341,13513 29122,14331 28866,15724"/>
  <polyline points="6208,13772 6218,11189 6195,11190"/>
  <polyline points="71142,-10521 66703,-9733 65825,-14827"/>
  <polyline points="58934,-1064 59995,-1367 60444,-2223 60325,-3465 60748,-4763 61355,-4718 61507,-4107 61857,-4387 61906,-4949 61924,-5978 62730,-7084 63271,-7045 63825,-7294 64275,-7645 65229,-9102 65206,-9686 65416,-10952 65609,-12468 65588,-13776 65288,-14449 65825,-14827"/>
  <polyline points="36161,20932 31098,21215 26556,21530"/>
  <polyline points="22265,-20356 26500,-20629 30826,-20945 34020,-21170"/>
  <polyline points="19593,-8179 19288,-6765 19757,-5107 20533,-3989 21412,-3080 22454,-2382 22869,-2150 23295,-1103 23420,-169 23934,35 24738,-377 25628,473 25447,1523 25091,2365 24868,3367 25548,4171 26474,4906 26978,4894 28223,6045 28684,6180 29113,7512 29009,8366 29681,9701 30154,9520 31014,10329"/>
  <polyline points="22978,33096 23333,33400 22945,34238 23698,35363 23539,36072 24209,37009 23578,37622 23412,38702 22530,39632 22157,40840 21786,42227 21225,42887 21491,44292 25790,44243 30372,43964 30298,44914 30039,45865 30397,46560 31087,47172 31327,48098 31458,48652"/>
  <polyline points="-80579,3266 -73438,4546 -64923,6017 -58478,7041"/>
  <polyline points="53844,19102 53792,17907 54713,17430 54950,16789 55506,16027 56408,15754 57441,15351 58411,14725 58789,14169 59588,13600 59505,13200 60529,12280 60967,12715 62474,11417 63267,11407 63814,10367 64689,9982 64513,9197 64516,8482"/>
  <polyline points="59551,18372 59985,18141 62309,16824 66519,16218 68693,16126 68811,16611 69207,16168 70080,16988 70177,17637 75256,16805 81371,21084"/>
  <polyline points="93131,-21164 93011,-22347 89327,-23739"/>
  <polyline points="89327,-23739 88881,-23379 88452,-21984 87904,-21349 88292,-20688 87963,-19907 88149,-19021 88641,-18956 88850,-18394 90500,-17289 90103,-16566 89279,-15609 89056,-15197 88310,-14496"/>
  <polyline points="2920,-5636 2354,-6832 1682,-7549 957,-8435 870,-8899"/>
  <polyline points="-1854,-25315 -1774,-30581 -2230,-35988 -2923,-36433 -3308,-37310 -3087,-38074 -2198,-38699 -2125,-39523"/>
  <polyline points="-1893,-19613 -2590,-19694 -2944,-19968 -3130,-20437 -4261,-20918 -5324,-21656 -6801,-21623 -7783,-21663 -8146,-21414 -9656,-21897 -10703,-22637 -18972,-22964 -25151,-23328 -33184,-23953"/>
  <polyline points="28866,15724 28850,16194 28442,17016 27679,17616 27564,18558 26888,19342 27049,20973 26556,21530"/>
  <polyline points="6208,13772 11713,13733 16715,13575 21490,13357 26662,13399 27084,14070 26612,14706 26142,15345 25898,15920 28866,15724"/>
  <polyline points="7155,30114 7205,25181 7208,19704 6208,13772"/>
  <polyline points="22978,33096 23146,31974 22523,30524 22559,29182 23476,27163 23905,25974 24684,25162 25202,24812 25732,23268 25699,22453 26496,21982 26556,21530"/>
  <polyline points="22978,33096 18963,33099 13789,33484 9207,33597"/>
  <polyline points="36161,20932 41948,20396 47859,19837"/>
  <polyline points="36161,20932 36585,21990 36386,29340 36309,38409 37184,47024"/>
  <polyline points="103678,-28268 103333,-29064 102522,-29508 101827,-30844 100141,-30316"/>
  <polyline points="93126,-32717 93212,-28739"/>
  <polyline points="93212,-28739 96341,-29435 100141,-30316"/>
  <polyline points="-31472,10052 -31680,12832"/>
  <polyline points="-58478,7041 -63046,38632"/>
  <polyline points="-62746,-22063 -63669,-16667 -55289,-15216"/>
  <polyline points="-34148,-12768 -33184,-23953"/>
  <polyline points="-32265,-35422 -33184,-23953"/>
  <polyline points="-108051,-57667 -107252,-57496 -106118,-57113 -105360,-56339 -104364,-55695 -103980,-54448 -104156,-53509 -104105,-52666 -103290,-52196 -102351,-51936 -100712,-52079 -99799,-52002 -98507,-51379 -97989,-50925 -97136,-50893 -96145,-51093 -94444,-50549 -92865,-50768 -92002,-51015 -91093,-50519 -89574,-50734 -81672,-48835"/>
  <polyline points="-2125,-39523 -2116,-40550 -2356,-41412 -2679,-42331 -2858,-43484 -2894,-44778 -3023,-45088 -3166,-46753 -3175,-47516 -3244,-48196 -3424,-49350 -3875,-50522 -4304,-51569 -4358,-52603 -4392,-53719 -4255,-54444 -4221,-55107 -4562,-55932 -4610,-56495"/>
  <polyline points="-31602,-40562 -24095,-40006 -16025,-39578 -9624,-39336 -2125,-39523"/>
  <polyline points="53844,19102 51404,19467 47859,19837"/>
  <polyline points="59551,18372 59116,18906 58529,20066 59902,20818 60751,21042 61869,22681 62566,23589 64382,24668 64808,25312 66053,26051 66805,27294 68479,28181 69020,29402 69399,29974 69304,30410 70282,30878 70919,31848 71087,32912 71555,33047 72416,33197"/>
  <polyline points="53844,19102 59551,18372"/>
  <polyline points="53436,41905 53117,41269 52724,40588 52745,39649 52744,38641 52357,37613 52407,35794 53073,34712 52535,33759 51643,32086 49870,26647 47859,19837"/>
  <polyline points="82576,-7444 83027,-8051 82362,-8506 82071,-8168"/>
  <polyline points="86789,-13735 83069,-12899 79441,-12163 76435,-11532 75090,-11259 71142,-10521"/>
  <polyline points="79049,-9770 78569,-10404 77892,-11086 76491,-11261 75754,-10683 75370,-10184 74068,-10164 73607,-9477 72803,-9099 72189,-8325 71622,-7710 71142,-10521"/>
  <polyline points="-58478,7041 -55289,-15216"/>
  <polyline points="-31472,10052 -27157,10380"/>
  <polyline points="-26071,-6488 -26059,-6669 -25686,-12112 -34148,-12768"/>
  <polyline points="-31472,10052 -36838,9598 -44445,8833 -51502,7986 -58478,7041"/>
  <polyline points="-34148,-12768 -38387,-13164 -46848,-14095 -51069,-14633 -55289,-15216"/>
  <polyline points="38501,-17453 38504,-17427 43005,-17882 46930,-18373 46986,-17936"/>
  <polyline points="48691,-3590 48237,-7457 47599,-12887 46986,-17936"/>
  <polyline points="35613,-16877 35593,-16875 36196,-10392 36798,-3916 36450,-2314 36845,-1935 37165,-1001 37201,-246 36866,128 36635,1084 35834,2386 35350,3945 35307,5089"/>
  <polyline points="19532,-25819 19607,-25516 20188,-24651 19844,-24206 19920,-23025 20115,-22532 20430,-21654 21811,-21191 22265,-20356"/>
  <polyline points="19532,-25819 14162,-25681 8184,-25466 2621,-25311 -1854,-25315"/>
  <polyline points="870,-8899 4710,-8923 8542,-8997 13458,-9178 18123,-9489 18983,-8619 19593,-8179"/>
  <polyline points="22265,-20356 22532,-19942 23040,-19686 23275,-19092 23958,-18681 24420,-18224 24293,-16701 23596,-15382 23340,-14961 22397,-14580 20965,-14222 20640,-13236 21189,-12828 21417,-11968 20915,-10966 20677,-10099 19628,-9208 19593,-8179"/>
  <polyline points="870,-8899 588,-9915 706,-10920 612,-11890 176,-13510 -106,-14183 -409,-14364 -439,-15664 -702,-16596 -1458,-17658 -1448,-18122 -1709,-19052 -1893,-19613"/>
  <polyline points="-1893,-19613 -1884,-20128 -2552,-20757 -2213,-21679 -1994,-22580 -1892,-23190 -2413,-23941 -2400,-25315 -1854,-25315"/>
  <polyline points="89290,-4012 89698,-4467 90683,-4781"/>
  <polyline points="82576,-7444 82527,-7772 82071,-8168"/>
  <polyline points="55582,9718 62267,8944 64516,8482"/>
  <polyline points="79049,-9770 78780,-8639 76299,-9697 76251,-8163 75825,-7511 75123,-6628 74622,-5794 74265,-5965 73934,-5092 73638,-4326 73524,-3784 72942,-3456 72225,-3732 71571,-4054 71374,-2777 70806,-1660 70737,-806 70021,67 69596,1128 69782,1766 69776,2289 69151,2838 68524,2864 68047,3362 67514,3249 67503,3761 65931,4497 65336,4194 64048,5087 63304,4747 62727,4323 62383,3410"/>
  <polyline points="64516,8482 72085,7458 80953,5810 85635,4795 90373,3729"/>
  <polyline points="82071,-8168 81145,-8615 80173,-8759 80365,-9415 79712,-9712 79049,-9770"/>
  <polyline points="82576,-7444 82593,-6983 81969,-6312 81735,-4984 82371,-4804 83023,-5191 83439,-4470"/>
  <polyline points="93126,-32717 92143,-37258 91564,-37154 91438,-37343 91487,-38199 90762,-39535 90870,-40766 90441,-41545 89935,-43145 89910,-43888 89708,-45017"/>
  <polyline points="96457,-33486 93126,-32717"/>
  <polyline points="7155,30114 5117,29039 3795,28452 2730,28843 1081,28790 106,28801 -699,29260 -1486,29494 -2173,29213 -3744,29506 -4446,28559 -5187,29366 -6462,28985 -7762,28086 -9180,28622 -9764,27250 -11945,27329 -13328,26984 -14881,26532 -15532,25339 -16771,25668 -17508,25179 -18592,24527 -18355,19157 -18112,13653 -22638,13429 -27162,13155 -31680,12832"/>
  <polyline points="9207,33597 9629,39635 10434,40255 10723,41123 11168,42425 11763,43700 12214,44462 11800,46548 11503,47171 11110,48537 11478,48907 11495,50040 10775,50810 10292,51655 10716,52398"/>
  <polyline points="7155,30114 7408,30480 8321,30389 9410,30387 9207,33597"/>
  <polyline points="-31680,12832 -32818,27536 -33637,38127 -38086,37761 -46702,36923 -51003,36441 -51009,36925 -50577,37886"/>
  <polyline points="-31602,-40562 -32265,-35422"/>
  <polyline points="-60555,-36000 -60451,-36185 -59993,-39017 -52208,-37845 -46052,-36944 -38897,-36134 -32265,-35422"/>
  <polyline points="-31602,-40562 -31189,-47438 -30319,-57839"/>
  <polyline points="53436,41905 43558,43024 40816,43612 40779,44049 42017,45318 41865,46458 41583,47266"/>
  <polyline points="70625,40976 69590,41035 68570,40773 68017,41053 68308,43005 67759,43604 67249,42678 59267,42963 54357,43331 53436,41905"/>
  <polyline points="48691,-3590 50192,-3646 51027,-3208 52346,-2100 53323,-1829 54055,-1469 55071,-1768 55881,-1554 56771,-1992 57581,-2205 58043,-1476 58934,-1064"/>
  <polyline points="55582,9718 52571,10303 48587,10553 47301,10773 44706,10905 42070,11140 39644,11352 36843,11771 36675,11530 35782,11620 35874,12500 29419,12961"/>
  <polyline points="31014,10329 30917,10903 31069,11778 30389,12297 29419,12961"/>
  <polyline points="58934,-1064 59096,-547 59221,609 59873,1399 60212,2211 60964,2834 61508,3440 62383,3410"/>
  <polyline points="35307,5089 35374,5504 34939,6326 35366,6821 34620,7297 33649,7850 33924,9060 33375,9570 32253,9138 31038,8928 30776,9494 31014,10329"/>
  <polyline points="48691,-3590 48473,-3296 48968,-2202 48831,-1765 48099,-1667 47478,-1092 46422,-1171 46453,-88 45885,391 45417,1416 44817,1661 44033,3431 43087,3050 42736,2393 42087,3589 41663,4261 40644,3702 39680,4335 39399,4913 37954,4191 37063,4892 35883,4561 35894,5183 35307,5089"/>
  <polyline points="55582,9718 56833,9224 57705,8750 58027,8151 59151,7313 59539,6658 59580,6192 60868,5336 62383,3410"/>
  <polyline points="2920,-5636 3952,-4895 4514,-4913 4647,-4100 4049,-3053 4385,-2522 4936,-1348 6091,-832 6136,5184 6195,11190"/>
  <polyline points="6195,11190 2248,11236 -5847,11210 -13943,11026 -18439,10854 -22930,10633 -27157,10380"/>
  <polyline points="2920,-5636 -3018,-5636 -12935,-5835 -18537,-6059 -26062,-6487 -26071,-6488"/>
  <polyline points="-27157,10380 -26603,2151 -26071,-6488"/>
  <polyline points="88310,-14496 87337,-14573 87014,-14240 86789,-13735"/>
  <polyline points="88310,-14496 87814,-13782 88168,-12753"/>
  <polyline points="86789,-13735 88685,-6825 91547,-7482"/>
  <polyline points="-80579,3266 -75047,-24274"/>
  <polyline points="-80579,3266 -81442,7705 -81670,7851 -82135,8632 -82701,8289 -83475,7724 -84414,7530 -84861,8145 -84619,8983 -84869,10169 -84999,11255 -85002,12380 -85504,13405"/>
  <polyline points="-99363,-29985 -87294,-26966 -87290,-26981"/>
  <polyline points="-88568,26223 -87950,26358 -87208,25358 -87869,24427 -87860,23565 -87897,22541 -86733,21460 -85845,19006 -84224,18156 -84871,16919 -85247,15759 -85422,14715 -85516,13917 -85504,13405"/>
  <polyline points="-99363,-29985 -116281,-35013"/>
  <polyline points="-99363,-29985 -103773,-13728 -97622,-4297 -91493,4797 -85504,13405"/>
  <polyline points="-81672,-48835 -81409,-49807 -81561,-50729 -79854,-58446 -78201,-65525"/>
  <polyline points="-62746,-22063 -75047,-24274"/>
  <polyline points="-62746,-22063 -60431,-35877 -60555,-36000"/>
  <polyline points="-81672,-48835 -81013,-47562 -80470,-46967 -80455,-46083 -81012,-45455 -81862,-44156 -82832,-42510 -83930,-41620 -84778,-40503 -84995,-39628 -84347,-39083 -84196,-38293 -84908,-36815 -87290,-26981"/>
  <polyline points="-60555,-36000 -60937,-36379 -61191,-37225 -61594,-37451 -62349,-36444 -63291,-36423 -65469,-37168 -65674,-36641 -66936,-37082 -67813,-36450 -68243,-38023 -68574,-38922 -69351,-39212 -69512,-39663 -69479,-41160 -70037,-41988 -70136,-43828 -70449,-44683 -70890,-44930 -71445,-44230 -72347,-43726 -72928,-44416 -72673,-45843 -72149,-46108 -72179,-47600 -71504,-48982 -70832,-50128 -71972,-50416 -72786,-51426 -73478,-53364 -73923,-54359 -74679,-55073 -75183,-56113 -74961,-57110 -75617,-58803 -74605,-64706"/>
  <polyline points="-75047,-24274 -87290,-26981"/>
  <polyline points="103128,-37441 102726,-37268 102326,-37972 101369,-38569 101367,-39144 98073,-48884"/>
  <polyline points="96457,-33486 101300,-34749 101562,-35398 102303,-36002 102804,-36032"/>
  <polyline points="96457,-33486 95985,-33966 96113,-34755 95831,-36209 95862,-36581 95653,-37904 95796,-39106 95991,-39667 96111,-41083 95963,-41983 95950,-42548 96633,-43015 97334,-43884 97299,-44603 96796,-45304 96839,-46909 96833,-46910"/>
  <polyline points="165496,90212 168410,89772 169767,90559 168882,92460 164805,93806 161707,95053 160594,92725 161085,91646 165496,90212"/>
  <polyline points="103805,107062 107652,106804 110908,107570 112184,108967 108285,109927 106794,111265 103465,110969 99840,109470 100244,107999 102499,107123 103805,107062"/>
  <polyline points="73402,84373 78046,84065 82220,83438 87544,84520 90047,86235 94889,84638 97038,85612 102287,88239 106179,90117 107927,89651 111391,90104 111368,91810 115392,91128 120029,92500 119718,94001 116289,95594 112698,96726 108845,97107 101151,99322 104132,95336 101608,94297 98039,94618 95840,93317 93925,90278 90930,91076 85638,90432 83817,89500 76680,89753 74633,88916 76413,87163 71131,87662 67709,91217 65490,91600 64906,93120 62313,94101 59929,93837 62553,91687 63447,89444 65696,87837 68264,86335 72212,85199 73402,84373"/>
  <polyline points="145882,-80392 144117,-79405 137226,-76565 136023,-77883 137411,-80659 135283,-81428 136812,-85835 136575,-95713 137192,-99235"/>
  <polyline points="-122567,-110553 -119352,-109708 -122856,-104010 -121802,-98539 -123108,-99086 -124055,-102345 -124207,-105306 -125107,-107660 -124676,-110261 -123746,-111885 -122567,-110553"/>
  <polyline points="-106708,-79274 -105828,-76120 -103008,-72732 -102474,-69262 -104529,-69077 -109613,-73467 -110024,-75747 -112519,-78729 -112603,-80488 -115828,-82748 -116068,-86163 -115309,-87299 -112143,-84812 -110319,-83243 -107260,-81546 -106708,-79274"/>
  <polyline points="-12937,131146 -17089,128876 -21399,127872 -27796,124769 -32426,121627 -33764,119938 -36926,119365 -42588,117031 -44710,114119 -50425,110196 -52833,106192 -53847,103188 -51948,102809 -52339,101077 -50921,99688 -50686,97669 -52246,94858 -52487,92488 -53970,89361 -57996,83069 -62717,77908 -64771,73994 -68879,71031 -69620,69498 -68316,66095 -70714,64380 -73272,61158 -73888,57011 -76500,56108 -78878,52646 -80704,49503 -80601,47712 -82444,43009 -83342,38413 -82860,36287 -85871,33411 -87502,33336 -89887,31252 -91119,33343 -90893,36171 -91301,40441 -90118,43078 -87272,47647 -86721,49122 -86050,49666 -85769,51716 -84875,51805 -84560,55616 -83308,57328 -82603,59517 -79940,62955 -79156,68520 -78048,71268 -77051,74176 -77257,77237 -74767,77829 -73066,80760 -71538,83615 -71821,84628 -74379,86407 -75319,86234 -76167,82515 -79079,78688 -82375,75285 -84774,73368 -83854,69237 -84075,66024 -86177,63824 -89175,60643 -89983,61239 -90963,59520 -93783,57534 -96039,53664 -95588,53318 -93609,54063 -91338,52347 -90641,49859 -93585,45097 -96105,42944 -97119,39085 -98076,35055 -99254,30138 -99990,24738 -100099,21745 -102309,17871 -104276,16686 -104376,14992 -106850,14067 -108080,12170 -112115,10510 -113016,9318 -112727,6193 -115450,-459 -116829,-9015 -116302,-10216 -117637,-12559 -119494,-18062 -118685,-22609 -119936,-26230 -117616,-30377 -116281,-35014 -116218,-39524 -113057,-44084 -111028,-48810 -109009,-53549 -107378,-61001 -107052,-65997 -107293,-68851 -106510,-69766 -101854,-66268 -101461,-60543 -100115,-61704 -99363,-66346 -99237,-71190 -99715,-71350 -104878,-78876 -106583,-82053 -112037,-86471 -112181,-91944 -110483,-95098 -113846,-98982 -112741,-103571 -115069,-109024 -114017,-111848 -114909,-114584 -116922,-117438 -115791,-122540 -117748,-128597 -117417,-131424"/>
  <polyline points="7667,-132034 5241,-126440 4158,-121615 4092,-114591 8693,-113692 10299,-108132 11971,-103676 16425,-105067 22593,-102900 26028,-100923 28627,-98359 32924,-97169 36720,-95113 42252,-95494 45946,-95459 46159,-90365 48102,-84739 51631,-78732 57806,-74230 60195,-76572 60972,-82764 57465,-91439 54544,-94029 59343,-97729 62221,-102523 63141,-106927 62039,-110744 58860,-115246 54221,-118915 56538,-125834 54136,-130964 52221,-137102"/>
  <polyline points="68522,-140905 70615,-139719 72113,-137660 77326,-138677 78711,-133739 81894,-126711 84891,-126649 88133,-123970 91401,-128559 92009,-135816 92951,-139148 97041,-134874 103560,-129135 109477,-123776 109635,-119837 114955,-118392 119021,-116448 124547,-117189 127295,-116372 130581,-112440 131067,-112513"/>
  <polyline points="136351,-101058 135667,-99732 131065,-95450 128695,-89317 123286,-86116 115510,-84439 110313,-82617 106846,-81007 105208,-76135 101447,-72278 98410,-63481 95594,-57218 98509,-59020 102252,-67940 108312,-74885 113416,-77244 117491,-75734 115420,-70927 118623,-65564 121271,-61970 127054,-61089 132844,-64211 134083,-71583 135902,-67885 139037,-66967 135920,-61675 128886,-55324 125928,-51796 123015,-46445 119944,-45823 118254,-50290 123270,-56998 117316,-54709 113332,-52650 114570,-51108 111323,-47182 107926,-44087 104281,-41258 103128,-37442 102804,-36033 103582,-33151 105732,-30665 107445,-31015 106445,-32862 108003,-32016 108136,-30381 105658,-28713 103678,-28266 100953,-26497 99224,-25741 96914,-24846 93888,-22396 99663,-24982 101156,-24280 95812,-21136 93174,-20464 93131,-21164 92240,-19341 93526,-19391 93589,-15251 91522,-10308 90874,-11638 89875,-11705 88167,-12752 89732,-10008 91018,-9280 91569,-7229 90683,-4782 89234,149 88786,20 89290,-4012 86613,-5613 85105,-10060 84800,-7508 86482,-4228 83438,-4472 86803,-3346 88143,1834 89489,1933 90373,3728 92241,9076 90292,13792 85945,16426 83598,20277 81370,21085 79421,23567 79107,25553 74622,30088 72415,33197 70721,36879 70626,40975 72114,44730 74541,49266 77411,52876 77858,55305 81379,61437 81896,65280 82064,67525 81391,71219 79970,72202 77310,71936 76087,69570 73924,68575 70456,64107 67451,60120 66371,58015 66844,54112 65001,51210 60505,47031 58480,46422 53856,49605 52942,49428 50255,47067 47038,46005 41583,47266 37184,47024 33481,47710 31518,48741 32512,50185 32599,52493 33734,53537 32843,54354 30939,53645 29145,54848 25521,54889 21658,52077 17367,52973 13720,51780 10654,52263 6506,53671 2004,57939 -2994,60395 -5780,63098 -6985,65659 -7096,69616 -6880,72379 -5922,74349 -8023,79385 -9019,83535 -9558,91316 -10136,94156 -9257,97367 -7612,100257 -6578,104837 -2932,109271 -1641,112659 560,115590 6578,117130 8963,119592 13911,117813 18215,117076 22410,115838 25915,114651 29360,112035 30489,108503 30642,103521 31487,101743 35101,99958 40777,98159 45626,97943 48884,97133 50316,98241 50416,101079 47798,104860 46816,108571 47940,109504 47341,112140 46353,116901 44784,115501 43610,115701 43705,116572 44780,116507 44827,118135 44128,120795 44707,121677 44290,123870 44702,124413 44292,127505 43288,129197 42257,129473 42189,129623"/>
  <polyline points="134176,92324 134582,91166 135665,90744 138784,90021 142388,90572 143761,90015 145336,91746 148246,90750 148588,92498 151049,91972 154352,93234 153066,96181 150100,95731 147677,96721 145806,96978 145131,98312 143136,99273 141904,98118 140332,99455 139239,104017 137564,103489 136830,101906 132912,101908 130421,102992 126950,103435 124637,105166 121233,104080 121265,102093 126525,101644 130789,101042 132421,99238 129269,97400 128735,95194 125082,95177 125896,93282 129256,92681 134176,92324"/>
  <polyline points="92661,69102 94252,69022 97020,73360 97728,76652 96505,77197 94519,74186 92251,72924 92661,69102"/>
  <polyline points="86907,60950 89190,60045 92546,59555 92994,60988 87659,62972 86907,60950"/>
  <polyline points="92619,58369 97117,60076 97090,64261 96005,63733 95474,60773 92760,59013 92619,58369"/>
  <polyline points="121396,-66826 123631,-64712 126553,-64997 129881,-66447 128926,-63586 127696,-62720 122185,-63231 120618,-64680 121396,-66826"/>
  <polyline points="114061,-81362 115097,-82250 120157,-82604 124570,-81752 125057,-80817 123397,-80058 118233,-80012 114061,-81362"/>
  <polyline points="47813,-136258 47640,-135181 46273,-135468 45978,-135929"/>
  <polyline points="-114017,-111848 -111233,-113789 -109960,-117277 -113737,-122850 -114146,-130376 -114262,-135097 -115011,-136859"/>
  <polyline points="-99990,24738 -94605,25528 -88558,26206 -89223,27196 -82674,31317 -72540,37187 -63045,38631 -59194,39157 -58870,36842 -50578,37885 -49054,40079 -46781,42130 -44153,44909 -42822,48019 -41893,51248 -39489,53191 -35504,55237 -32043,50984 -27998,51144 -24641,53613 -22341,57639 -20760,61065 -17908,64449 -16935,68501 -15589,71250 -11608,73149 -7950,74492 -5922,74349"/>
  <polyline points="32270,130321 32283,129108 31323,128798 30603,127530 28389,126260 26142,124366 28736,124215 28554,120842 33880,120512 39157,120207"/>
  <polyline points="39515,129829 39472,124957 39157,120207"/>
  <polyline points="-99237,-71190 -88997,-68254 -78200,-65529 -74606,-64704 -63407,-62394 -52501,-60517 -41354,-58971 -30155,-57791 -17438,-56904 -4609,-56494 3155,-56473 3146,-58668 4407,-58709 5116,-55584 6303,-54638 8945,-54347 12832,-53562 16587,-51955 19623,-52855 24389,-51675"/>
  <polyline points="44465,-44697 44463,-44689 45526,-44648"/>
  <polyline points="55803,-26537 54330,-23191 53702,-21111"/>
  <polyline points="70100,-28880 69425,-30476"/>
  <polyline points="79129,-37364 82289,-42109 83813,-43533 89707,-45018 96833,-46909 96845,-48360 97997,-48975 99384,-50277 100020,-53139 99928,-57703 101530,-62650 103193,-61596 105377,-63285 107509,-62243 109870,-54887 113332,-52650"/>
  <polyline points="136830,101906 136513,100308 134632,98963 135698,97632 135507,95312 134177,92325"/>
  <polyline points="39157,120207 39046,119331 39714,119004 40802,119630 42543,115870 43610,115701"/>
  <polyline points="-10160,-85030 -6681,-87313 -6191,-85682 -5705,-81980 -1413,-70201 -867,-66138 -2656,-64758 -3354,-66516 -4441,-70807 -7813,-74834 -11275,-80915 -10160,-85030"/>
  <polyline points="-47099,-136128 -48552,-134890 -52033,-132554 -57241,-132355 -60463,-132967 -64500,-136772 -65247,-137271 -65114,-138249 -64476,-138313 -60868,-135989 -57148,-137455 -56258,-137944"/>
  <polyline points="69245,-30376 68064,-29859 66355,-30090 67215,-32205 68318,-33087 70987,-34434 74205,-35860 76190,-35182 77042,-36627 78135,-37660 79065,-37440 79705,-36683 80416,-34593 77807,-32125 74417,-31897 71214,-31474 69245,-30376"/>
  <polyline points="53702,-21111 56026,-21091 58818,-23330 60364,-25170 61540,-25622 63884,-25442 64822,-26493 66686,-27545 70100,-28880 70283,-28352 67378,-24397 64556,-22248 62554,-21141 60346,-19207 57443,-18000 55318,-17975 52581,-18762 53702,-21111"/>
  <polyline points="24389,-51675 25764,-54032 27836,-55091 28556,-56545 29337,-57358 32926,-56531 35523,-56654 36501,-55990 38113,-52918 42469,-52565 41994,-50879 43710,-49411 43323,-47190 45031,-46688 44463,-44689 43251,-44769 42246,-46246 38500,-45319 35185,-43704 32245,-45593 29988,-46121 30964,-49210 27729,-47052 24764,-44988 21858,-43352 19362,-45157 15529,-43786 15505,-44617 18016,-47132 20618,-49551 24389,-51675"/>
  <polyline points="-11876,-80412 -12382,-80399 -13271,-80566 -15415,-81484 -15951,-82951 -14951,-84146 -15221,-85105 -15134,-85320 -14824,-86175 -14478,-86955 -13660,-86833 -13869,-86166 -14380,-85199 -13308,-85140 -13470,-84522 -14070,-82347 -12749,-81433 -11809,-81234 -11876,-80412"/>
  <polyline points="-42235,-118268 -47104,-116137 -47329,-116938 -47133,-117357 -40080,-121078 -32473,-118679 -32497,-118518 -42235,-118268"/>
  <polyline points="-18691,-109560 -17632,-108620 -19192,-105617 -19119,-104909 -23620,-99973 -23846,-100374 -23272,-102075 -23040,-102097 -22899,-101220 -21313,-103319 -21922,-105442 -21844,-106493 -19428,-109639 -18691,-109560"/>
  <polyline points="44246,-41723 44381,-41714 47758,-42666 45526,-44648 46147,-45569 47073,-44425 50083,-44129 53047,-44500 56284,-44416 59940,-43905 61512,-42374 64812,-38564 63865,-36499 60506,-36710 57942,-39828 59015,-36398 57610,-32998 58240,-30390 58153,-28783 55803,-26537 55256,-28790 54047,-31915 52477,-32256 50321,-29450 49510,-29388 49114,-30766 51019,-33303 51024,-35900 50344,-38396 47130,-40184 43649,-40882"/>
  <polyline points="43649,-40882 43358,-38683 42555,-38007 42179,-35156 41591,-36995 40155,-35472 39365,-33479 38610,-30615 38659,-28216 40382,-24895 40669,-21191 39271,-18287 38504,-17428 37435,-16700 36014,-16532 35593,-16875 34197,-19716 34033,-21169 34018,-22563 33255,-25262 33741,-28508 34289,-32505 35941,-37030 35345,-36951 32756,-33054 32154,-33670 33534,-35839 35544,-39701 38166,-40483 41098,-41947 44246,-41723"/>
</svg>
